<svg xmlns="http://www.w3.org/2000/svg" viewBox="0 0 224.57 280.18"><defs><style>.cls-1{fill:#fff;}</style></defs><g id="Layer_2" data-name="Layer 2"><path d="M260.75,92c-.06,6-.07,12-.38,18-.51,10.17-1.35,20.32-2.69,30.42-.89,6.71-1.81,13.41-3,20.07a235,235,0,0,1-13,45.79,194.17,194.17,0,0,1-23.62,42.42A222.84,222.84,0,0,1,193,277.54a218.3,218.3,0,0,1-19.16,15.85q-11.61,8.88-24,16.66a2.1,2.1,0,0,1-2.66.06,334.29,334.29,0,0,1-28.92-20.51,205.78,205.78,0,0,1-22.34-20C82.34,255,70.65,239.09,61.83,221.17a211.61,211.61,0,0,1-15.91-43.72,282.72,282.72,0,0,1-5.61-28.22C39.06,140,38,130.78,37.22,121.5c-1.27-16.29-.91-32.6-1-48.91,0-2,0-2,1.89-2.27,9.94-1.62,19.82-3.55,29.56-6.1C81.55,60.57,95.33,56.57,108.6,51a243.22,243.22,0,0,0,39.16-20.35,1.4,1.4,0,0,1,1.82.08,248.42,248.42,0,0,0,40.73,21,296.13,296.13,0,0,0,30.18,10c8.82,2.47,17.73,4.49,26.67,6.35,4.06.84,8.14,1.56,12.22,2.27,1,.18,1.42.45,1.4,1.62C260.71,78.65,260.75,85.35,260.75,92Z" transform="translate(-36.22 -30.38)"/><path class="cls-1" d="M254.4,96.52c-.06,5.65-.07,11.3-.35,16.94-.48,9.6-1.28,19.16-2.54,28.69-.84,6.32-1.71,12.64-2.86,18.92a221.91,221.91,0,0,1-12.22,43.17,182.62,182.62,0,0,1-22.27,40,211.08,211.08,0,0,1-23.65,27.19,205,205,0,0,1-18.07,14.95q-10.94,8.36-22.59,15.7a2,2,0,0,1-2.5.06,317.06,317.06,0,0,1-27.28-19.34A194.1,194.1,0,0,1,99,263.93c-12.82-13.73-23.84-28.76-32.15-45.66a199.39,199.39,0,0,1-15-41.22,265.56,265.56,0,0,1-5.28-26.6c-1.18-8.69-2.23-17.4-2.92-26.15-1.2-15.36-.86-30.74-.94-46.11,0-1.86,0-1.86,1.78-2.15,9.37-1.52,18.69-3.34,27.87-5.75C85.44,66.86,98.43,63.08,111,57.85a229.3,229.3,0,0,0,36.93-19.18,1.31,1.31,0,0,1,1.7.07A234.32,234.32,0,0,0,188,58.52a278,278,0,0,0,28.46,9.42c8.31,2.32,16.71,4.23,25.14,6,3.83.8,7.67,1.47,11.52,2.15.93.16,1.34.42,1.33,1.52C254.36,83.9,254.4,90.21,254.4,96.52Z" transform="translate(-36.22 -30.38)"/><path d="M250.07,99.55c0,5.41-.06,10.83-.34,16.25-.46,9.2-1.22,18.37-2.43,27.51-.81,6.06-1.64,12.12-2.74,18.15a212.29,212.29,0,0,1-11.73,41.4,174.94,174.94,0,0,1-21.35,38.36,202.5,202.5,0,0,1-22.69,26.07,198.25,198.25,0,0,1-17.33,14.34q-10.49,8-21.66,15.06a1.9,1.9,0,0,1-2.4.06,305.19,305.19,0,0,1-26.16-18.55A186.33,186.33,0,0,1,101,260.11c-12.3-13.17-22.86-27.59-30.84-43.8a191.21,191.21,0,0,1-14.39-39.53,255.1,255.1,0,0,1-5.07-25.51c-1.13-8.34-2.14-16.69-2.8-25.08C46.79,111.45,47.12,96.71,47,82c0-1.78,0-1.77,1.71-2,9-1.47,17.92-3.21,26.72-5.52,12.56-3.3,25-6.92,37-11.93a219.41,219.41,0,0,0,35.41-18.4,1.28,1.28,0,0,1,1.64.07,225,225,0,0,0,36.84,19,266.55,266.55,0,0,0,27.29,9c8,2.23,16,4.06,24.12,5.74,3.66.77,7.36,1.41,11,2.06.9.16,1.29.4,1.27,1.46C250,87.44,250.07,93.49,250.07,99.55Z" transform="translate(-36.22 -30.38)"/><path class="cls-1" d="M171.48,200l1.42-.14a1.69,1.69,0,0,0,.52,1,1.57,1.57,0,0,0,1.05.33,1.66,1.66,0,0,0,1.06-.29.9.9,0,0,0,.36-.7.67.67,0,0,0-.15-.44,1.25,1.25,0,0,0-.52-.31c-.17-.06-.56-.16-1.17-.31a4,4,0,0,1-1.64-.72,1.89,1.89,0,0,1-.36-2.48,2,2,0,0,1,.9-.73,3.61,3.61,0,0,1,1.42-.25,3.09,3.09,0,0,1,2,.59,2.09,2.09,0,0,1,.72,1.59l-1.46.07a1.2,1.2,0,0,0-.4-.8,1.4,1.4,0,0,0-.92-.25,1.67,1.67,0,0,0-1,.26.53.53,0,0,0-.24.45.57.57,0,0,0,.22.44,4,4,0,0,0,1.34.48,7.09,7.09,0,0,1,1.57.52,2.1,2.1,0,0,1,.8.73,2.21,2.21,0,0,1,.29,1.15,2.16,2.16,0,0,1-.35,1.17,2,2,0,0,1-1,.8,4,4,0,0,1-1.57.26,3.12,3.12,0,0,1-2.1-.63A2.77,2.77,0,0,1,171.48,200Z" transform="translate(-36.22 -30.38)"/><path class="cls-1" d="M179.28,202.36v-7.22h5.35v1.22h-3.89V198h3.62v1.22h-3.62v2h4v1.22Z" transform="translate(-36.22 -30.38)"/><path class="cls-1" d="M191.32,199.7l1.42.45a3.24,3.24,0,0,1-1.08,1.76,3.41,3.41,0,0,1-4.28-.41,3.76,3.76,0,0,1-.93-2.69,4,4,0,0,1,.93-2.8,3.21,3.21,0,0,1,2.45-1,3,3,0,0,1,2.15.78,2.88,2.88,0,0,1,.74,1.33l-1.45.34a1.48,1.48,0,0,0-.53-.88,1.52,1.52,0,0,0-1-.33,1.64,1.64,0,0,0-1.3.58,2.82,2.82,0,0,0-.5,1.86,3.05,3.05,0,0,0,.49,2,1.6,1.6,0,0,0,1.28.58,1.44,1.44,0,0,0,1-.37A2.09,2.09,0,0,0,191.32,199.7Z" transform="translate(-36.22 -30.38)"/><path class="cls-1" d="M194.68,195.14h1.46v3.91a9.22,9.22,0,0,0,.05,1.2,1.2,1.2,0,0,0,.45.72,1.59,1.59,0,0,0,1,.26,1.48,1.48,0,0,0,.94-.25,1.05,1.05,0,0,0,.38-.62,8.77,8.77,0,0,0,.06-1.23v-4h1.46v3.79a9.63,9.63,0,0,1-.12,1.84,2.06,2.06,0,0,1-.44.9,2.15,2.15,0,0,1-.85.59,3.56,3.56,0,0,1-1.38.22,4,4,0,0,1-1.57-.24,2.32,2.32,0,0,1-.85-.62,2,2,0,0,1-.4-.8,8.3,8.3,0,0,1-.15-1.83Z" transform="translate(-36.22 -30.38)"/><path class="cls-1" d="M202.68,202.36v-7.22h3.07a5.57,5.57,0,0,1,1.68.19,1.63,1.63,0,0,1,.84.7,2.06,2.06,0,0,1,.31,1.13,2,2,0,0,1-.47,1.34,2.27,2.27,0,0,1-1.43.67,3.52,3.52,0,0,1,.78.61,8.9,8.9,0,0,1,.83,1.17l.88,1.41h-1.74l-1.06-1.57a11.17,11.17,0,0,0-.76-1.07,1.16,1.16,0,0,0-.44-.29,2.23,2.23,0,0,0-.74-.09h-.29v3Zm1.46-4.17h1.08a5.52,5.52,0,0,0,1.31-.09.76.76,0,0,0,.4-.3,1,1,0,0,0,.15-.54.85.85,0,0,0-.19-.59.88.88,0,0,0-.55-.28,10,10,0,0,0-1.06,0h-1.14Z" transform="translate(-36.22 -30.38)"/><path class="cls-1" d="M210.62,202.36v-7.22h1.46v7.22Z" transform="translate(-36.22 -30.38)"/><path class="cls-1" d="M215.79,202.36v-6h-2.14v-1.22h5.74v1.22h-2.14v6Z" transform="translate(-36.22 -30.38)"/><path class="cls-1" d="M222.93,202.36v-3l-2.65-4.18H222l1.7,2.86,1.66-2.86H227l-2.65,4.19v3Z" transform="translate(-36.22 -30.38)"/><path class="cls-1" d="M86.42,202.36V195.2h1.46v5.94H91.5v1.22Z" transform="translate(-36.22 -30.38)"/><path class="cls-1" d="M93.2,202.36v-7.22h1.46v7.22Z" transform="translate(-36.22 -30.38)"/><path class="cls-1" d="M96.76,202.36v-7.22h4.95v1.22H98.22v1.71h3v1.22h-3v3.07Z" transform="translate(-36.22 -30.38)"/><path class="cls-1" d="M103.61,202.36v-7.22H109v1.22h-3.89V198h3.62v1.22h-3.62v2h4v1.22Z" transform="translate(-36.22 -30.38)"/><polygon id="Star" class="cls-1" points="112.35 237.21 114.28 241.12 118.61 241.75 115.48 244.8 116.22 249.1 112.35 247.07 108.49 249.1 109.22 244.8 106.1 241.75 110.42 241.12 112.35 237.21"/><polygon class="cls-1" points="87.35 88.24 89.28 92.16 93.61 92.79 90.48 95.84 91.22 100.14 87.35 98.11 83.49 100.14 84.22 95.84 81.1 92.79 85.42 92.16 87.35 88.24"/><polygon class="cls-1" points="137.35 88.24 139.28 92.16 143.61 92.79 140.48 95.84 141.22 100.14 137.35 98.11 133.49 100.14 134.22 95.84 131.1 92.79 135.42 92.16 137.35 88.24"/><path class="cls-1" d="M78.26,98.71l6.54-.41a4.87,4.87,0,0,0,.87,2.42,3.61,3.61,0,0,0,3,1.36,3.37,3.37,0,0,0,2.27-.69,2.1,2.1,0,0,0,.8-1.61A2,2,0,0,0,91,98.24,8.67,8.67,0,0,0,87.49,97c-3-.68-5.16-1.58-6.45-2.7A5.47,5.47,0,0,1,79.1,90a5.87,5.87,0,0,1,1-3.24,6.6,6.6,0,0,1,3-2.39,14,14,0,0,1,5.47-.88q4.26,0,6.5,1.59a6.85,6.85,0,0,1,2.66,5l-6.47.38a3.51,3.51,0,0,0-1.09-2.18,3.45,3.45,0,0,0-2.28-.68,2.83,2.83,0,0,0-1.81.5,1.58,1.58,0,0,0-.6,1.24,1.23,1.23,0,0,0,.5,1,5.75,5.75,0,0,0,2.3.82,28.6,28.6,0,0,1,6.46,2,6.84,6.84,0,0,1,2.84,2.47,6.23,6.23,0,0,1,.88,3.29,7,7,0,0,1-1.18,3.94A7.35,7.35,0,0,1,94,105.51a13.37,13.37,0,0,1-5.35.93c-3.79,0-6.41-.72-7.86-2.18A8.66,8.66,0,0,1,78.26,98.71Z" transform="translate(-36.22 -30.38)"/><path class="cls-1" d="M104.12,83.82h6.42l8.37,12.31V83.82h6.48v22.25h-6.48l-8.32-12.22v12.22h-6.47Z" transform="translate(-36.22 -30.38)"/><path class="cls-1" d="M132.41,83.82h6.89v22.25h-6.89Z" transform="translate(-36.22 -30.38)"/><path class="cls-1" d="M144.84,83.82h20.89v5.5h-7v16.75h-6.87V89.32h-7Z" transform="translate(-36.22 -30.38)"/><path class="cls-1" d="M184.76,97l6,1.82a11.11,11.11,0,0,1-1.91,4.24,8.34,8.34,0,0,1-3.24,2.56,12.06,12.06,0,0,1-4.92.86,14.3,14.3,0,0,1-5.92-1,9.32,9.32,0,0,1-4-3.71,12.56,12.56,0,0,1-1.67-6.79q0-5.52,2.93-8.48t8.31-3a11.31,11.31,0,0,1,6.61,1.7,10.06,10.06,0,0,1,3.57,5.22l-6.07,1.35a5.22,5.22,0,0,0-.66-1.48,4.23,4.23,0,0,0-6.86.24,8,8,0,0,0-.94,4.38q0,3.69,1.12,5.06a4.42,4.42,0,0,0,6.14.27A6.84,6.84,0,0,0,184.76,97Z" transform="translate(-36.22 -30.38)"/><path class="cls-1" d="M196.33,83.82h6.87v7.79h7.51V83.82h6.9v22.25h-6.9v-9H203.2v9h-6.87Z" transform="translate(-36.22 -30.38)"/><path class="cls-1" d="M136.77,251.13l3,1a6.79,6.79,0,0,1-2.31,3.76,7.31,7.31,0,0,1-9.17-.88,8,8,0,0,1-2-5.75,8.44,8.44,0,0,1,2-6,6.84,6.84,0,0,1,5.24-2.13,6.42,6.42,0,0,1,4.61,1.67,6.1,6.1,0,0,1,1.58,2.85l-3.09.74a3.25,3.25,0,0,0-1.14-1.9,3.34,3.34,0,0,0-2.12-.7,3.52,3.52,0,0,0-2.79,1.24,6,6,0,0,0-1.07,4,6.51,6.51,0,0,0,1,4.18,3.45,3.45,0,0,0,2.75,1.25,3.16,3.16,0,0,0,2.14-.79A4.59,4.59,0,0,0,136.77,251.13Z" transform="translate(-36.22 -30.38)"/><path class="cls-1" d="M147.47,256.81V244h-4.59v-2.62h12.29V244h-4.58v12.84Z" transform="translate(-36.22 -30.38)"/><path class="cls-1" d="M158.72,256.81V241.35h10.6V244h-7.48v3.65h6.46v2.62h-6.46v6.57Z" transform="translate(-36.22 -30.38)"/></g><g id="Layer_3" data-name="Layer 3"><path class="cls-1" d="M134.05,137.61l7,4.61-5.24,16.52,12.85,6.74,12.19-6.84-6.47-9.43s10.12-3.25,11,1.95c0,0,4.6-7.89-5.14-10.26l-10.76,8.83,4.09-4.85L146,141.8a15.54,15.54,0,0,1,7.18.42l6.28-2.44S158.55,137.37,134.05,137.61Z" transform="translate(-36.22 -30.38)"/><path class="cls-1" d="M149.19,171.91l-15.87-8.49s-1.76,21.75,15.25,38.7c0,0,17.33-15.54,15.51-38.51Z" transform="translate(-36.22 -30.38)"/><polygon class="cls-1" points="90.89 129.76 94.54 126.27 47.27 88.83 48.05 104.19 90.89 129.76"/><polygon class="cls-1" points="89.78 136.34 51.58 122.36 48.18 108.53 89.71 132.83 89.78 136.34"/><polygon class="cls-1" points="90.3 142.96 61.77 138.84 53.67 127.39 90.04 140.24 90.3 142.96"/><polygon class="cls-1" points="92.13 150.16 73.71 151.2 65.29 143.59 91.15 146.8 92.13 150.16"/><polygon class="cls-1" points="93.01 153.56 78.02 154.61 84.98 158.17 94.48 156.39 93.01 153.56"/><polygon class="cls-1" points="96.04 159.64 89.78 161.31 98.3 163.41 96.04 159.64"/><polygon class="cls-1" points="100.35 167.6 85.76 180.07 91.83 185.73 103.68 172 100.35 167.6"/><polygon class="cls-1" points="106.03 175.3 110.44 179.81 108.29 199.08 97.22 189.86 106.03 175.3"/><polygon class="cls-1" points="133.82 129.76 130.16 126.27 177.44 88.83 176.65 104.19 133.82 129.76"/><polygon class="cls-1" points="134.93 136.34 173.13 122.36 176.52 108.53 134.99 132.83 134.93 136.34"/><polygon class="cls-1" points="134.41 142.96 162.94 138.84 171.04 127.39 134.67 140.24 134.41 142.96"/><polygon class="cls-1" points="132.58 150.16 150.99 151.2 159.41 143.59 133.56 146.8 132.58 150.16"/><polygon class="cls-1" points="131.69 153.56 146.68 154.61 139.73 158.17 130.23 156.39 131.69 153.56"/><polygon class="cls-1" points="128.66 159.64 134.93 161.31 126.41 163.41 128.66 159.64"/><polygon class="cls-1" points="124.35 167.6 138.94 180.07 132.87 185.73 121.02 172 124.35 167.6"/><polygon class="cls-1" points="118.67 175.3 114.26 179.81 116.42 199.08 127.48 189.86 118.67 175.3"/></g></svg>